# xmcd
#
# Track frame offsets:
#	150
#	10065
#	21733
#	32252
#	41736
#	57674
#	72086
#	83503
#	94691
#	106970
#	122938
#	134748
#
# Disc length: 1914 seconds
#
# Revision: 1
# Processed by: cddbd v1.5.1PL0 Copyright (c) Steve Scherf et al.
# Submitted via: audiograbber 1.83.01
#
DISCID=a107780c
DTITLE=Carolina Rebels, The - The Best of Bluegrass Gospel
DYEAR=2004
DGENRE=Bluegrass
TTITLE0=River of Death
TTITLE1=I'll Talk It All Over With Him
TTITLE2=Three Men On A Mountain
TTITLE3=The Fourth Man
TTITLE4=Life's Railway To Heaven
TTITLE5=The Voice Of My Savior
TTITLE6=I Have Found A Way
TTITLE7=O' Come Angel Band
TTITLE8=Take Me In Your Lifeboat
TTITLE9=Will the Circle be Unbroken, I'll Fly Away, I Saw the Light
TTITLE10=No Hiding Place
TTITLE11=Light At The River
EXTD=
EXTT0=
EXTT1=
EXTT2=
EXTT3=
EXTT4=
EXTT5=
EXTT6=
EXTT7=
EXTT8=
EXTT9=
EXTT10=
EXTT11=
PLAYORDER=
